<?xml version="1.0" encoding="utf-8"?>
<!-- Generator: Adobe Illustrator 20.1.0, SVG Export Plug-In . SVG Version: 6.00 Build 0)  -->
<svg version="1.1" xmlns="http://www.w3.org/2000/svg" xmlns:xlink="http://www.w3.org/1999/xlink" x="0px" y="0px" width="679px"
	 height="236.3px" viewBox="0 0 679 236.3" style="enable-background:new 0 0 679 236.3;" xml:space="preserve">
<style type="text/css">
	.st0{fill:#663D0E;}
	.st1{fill:#663D0E;stroke:#663D0E;stroke-width:27;stroke-miterlimit:10;}
	.st2{fill:#FEE303;}
	.st3{fill:#FEE302;}
	.st4{fill:#FBB911;}
	.st5{clip-path:url(#SVGID_2_);}
	.st6{fill:#E52714;}
	.st7{clip-path:url(#SVGID_4_);}
	.st8{clip-path:url(#SVGID_6_);}
	.st9{clip-path:url(#SVGID_8_);}
	.st10{clip-path:url(#SVGID_10_);}
</style>
<g id="Layer_4">
	<path class="st0" d="M651.9,228.2l-638.4,0.4L12.6,14.5l17.7,0.1l177.6,59.1l131.6-16.6l225.9,10.4l76.4-52.8l26.2-0.4l0.7,196.9
		C668.7,220.5,661.2,228.1,651.9,228.2z"/>
</g>
<g id="Layer_2">
	<g>
		<path class="st1" d="M30.3,28h61.4c10.6,0,23.4-1.6,27.5,5.8c3.5,6.4,5.3,17.9,5.3,27.3c0,7.9-2,14.6-6.1,20.2
			c-2.7,3.7-6.6,6.7-11.8,8.9c7.9,2.3,13.7,6.2,17.4,11.8c3.7,5.6,5.6,12.6,5.6,21.1c0,6.9-1.3,13.1-4,18.6
			c-2.6,5.5-6.3,9.9-10.8,13.1c-2.8,2-7.1,3.4-12.9,4.4c-7.6,1.2-12.7,1.8-15.2,1.8H30.3V28z M62.5,80.1h14.7c5.3,0,9-1.1,11-3.3
			c2.1-2.2,3.1-5.4,3.1-9.6c0-3.9-1-6.9-3.1-9.1c-2.1-2.2-5.7-3.3-10.8-3.3h-15V80.1z M62.5,132.3h17.3c5.8,0,10-1.3,12.3-3.8
			c2.4-2.5,3.6-5.9,3.6-10.1c0-3.9-1.2-7.1-3.6-9.5c-2.4-2.4-6.5-3.6-12.5-3.6H62.5V132.3z"/>
		<path class="st1" d="M144.8,160.9V28c0,0,59.4,0,59.5,0c11.4,0,25.9-2.7,34.8,6.6c12.6,13.3,11.2,34.1,3.8,49.4
			c-2.6,5.4-6.2,9.7-10.7,13c-2.9,2.1-6.9,3.9-11.9,5.3c4,1.6,7,3.3,8.8,4.9c1.2,1.1,3.1,3.4,5.4,7c2.4,3.6,3.9,6.3,4.7,8.3
			l16.4,38.5h-38.3l-18.1-40.6c-2.3-5.3-4.3-8.7-6.1-10.2c-2.4-2.1-5.2-3.1-8.3-3.1h-3v54H144.8z M181.9,81.8h14.3
			c1.5,0,4.5-0.6,9-1.8c2.2-0.5,4.1-1.9,5.5-4.2c1.4-2.2,2.1-4.8,2.1-7.7c0-4.3-1.1-7.6-3.4-9.9c-2.2-2.3-6.5-3.4-12.6-3.4h-14.9
			V81.8z"/>
		<path class="st1" d="M259.7,94.5c0-21.7,2.8-41.1,12.8-53.2c10-12.1,26-15.6,43.8-15.6c18.3,0,33,4,42.9,15.8
			c9.9,11.9,14.1,30.5,14.1,51.9c0,15.5-2.2,28.3-6.5,38.2c-4.3,9.9-10.5,17.7-18.7,23.2c-8.2,5.5-18.3,8.3-30.5,8.3
			c-12.4,0-22.6-2.4-30.7-7.2c-8.1-4.8-14.7-12.3-19.7-22.7C262.2,123,259.7,110,259.7,94.5z M293.6,94.7c0,13.4,2.1,23.1,6.2,28.9
			c4.1,5.9,9.7,8.8,16.8,8.8c7.3,0,12.9-2.9,16.9-8.6c4-5.7,6-16,6-30.9c0-12.5-2.1-21.7-6.2-27.4c-4.2-5.8-9.8-8.7-16.9-8.7
			c-6.8,0-12.3,2.9-16.5,8.8C295.7,71.4,293.6,81.1,293.6,94.7z"/>
		<path class="st1" d="M377.7,28h34.2l11.6,52.4l18-52.4h31.1l16,52.3L501.1,28h30l-24.2,132.9h-33.2l-19.2-83.7l-19.2,83.7h-33.2
			L377.7,28z"/>
		<path class="st1" d="M542.4,28h37.6l35.3,51.5l1-51.5h30.9v132.9h-31.9l-41.1-73v73h-31.9V28z"/>
	</g>
</g>
<g id="Recycling_Limited">
	<g>
		<path class="st2" d="M29.3,216.4v-35.7h20.3c3.8,0,6.7,0.3,8.6,0.9s3.6,1.7,4.8,3.2c1.2,1.6,1.8,3.5,1.8,5.8c0,2-0.5,3.7-1.4,5.1
			c-0.9,1.4-2.2,2.6-3.9,3.5c-1,0.6-2.5,1-4.3,1.4c1.5,0.4,2.5,0.9,3.2,1.3c0.4,0.3,1.1,0.9,2,1.9c0.9,1,1.4,1.7,1.7,2.2l5.9,10.3
			H54.3l-6.5-10.9c-0.8-1.4-1.6-2.3-2.2-2.8c-0.9-0.6-1.9-0.8-3-0.8h-1.1v14.5H29.3z M41.5,195.1h5.1c0.6,0,1.6-0.2,3.2-0.5
			c0.8-0.1,1.5-0.5,2-1.1c0.5-0.6,0.8-1.3,0.8-2.1c0-1.2-0.4-2-1.2-2.7c-0.8-0.6-2.3-0.9-4.6-0.9h-5.4V195.1z"/>
		<path class="st2" d="M72,180.7h32.7v7.6H84.2v5.7h19v7.3h-19v7h21.1v8.1H72V180.7z"/>
		<path class="st2" d="M138.2,201.8l10.7,2.9c-0.7,2.7-1.9,5-3.4,6.8c-1.5,1.8-3.5,3.2-5.8,4.1c-2.3,0.9-5.2,1.4-8.7,1.4
			c-4.3,0-7.8-0.6-10.5-1.7s-5.1-3.1-7-5.9s-3-6.5-3-10.9c0-5.9,1.7-10.4,5.2-13.6c3.5-3.2,8.4-4.8,14.8-4.8c5,0,8.9,0.9,11.7,2.7
			c2.8,1.8,5,4.6,6.3,8.4l-10.8,2.2c-0.4-1.1-0.8-1.9-1.2-2.4c-0.7-0.8-1.5-1.5-2.5-1.9s-2.1-0.7-3.3-0.7c-2.8,0-4.9,1-6.4,3
			c-1.1,1.5-1.7,3.8-1.7,7c0,4,0.7,6.7,2,8.1c1.3,1.5,3.2,2.2,5.6,2.2c2.3,0,4.1-0.6,5.3-1.8C136.8,205.7,137.6,204,138.2,201.8z"/>
		<path class="st2" d="M150.8,180.7h13.6l8,12l8-12h13.5l-15.4,20.7v14.9h-12.2v-14.9L150.8,180.7z"/>
		<path class="st2" d="M220.7,201.8l10.7,2.9c-0.7,2.7-1.9,5-3.4,6.8c-1.5,1.8-3.5,3.2-5.8,4.1c-2.3,0.9-5.2,1.4-8.7,1.4
			c-4.3,0-7.8-0.6-10.5-1.7s-5.1-3.1-7-5.9s-3-6.5-3-10.9c0-5.9,1.7-10.4,5.2-13.6c3.5-3.2,8.4-4.8,14.8-4.8c5,0,8.9,0.9,11.7,2.7
			c2.8,1.8,5,4.6,6.3,8.4l-10.8,2.2c-0.4-1.1-0.8-1.9-1.2-2.4c-0.7-0.8-1.5-1.5-2.5-1.9s-2.1-0.7-3.3-0.7c-2.8,0-4.9,1-6.4,3
			c-1.1,1.5-1.7,3.8-1.7,7c0,4,0.7,6.7,2,8.1c1.3,1.5,3.2,2.2,5.6,2.2c2.3,0,4.1-0.6,5.3-1.8C219.3,205.7,220.2,204,220.7,201.8z"/>
		<path class="st2" d="M237.3,180.7h12.2v26.9h19v8.8h-31.3V180.7z"/>
		<path class="st2" d="M274.6,180.7h12.2v35.7h-12.2V180.7z"/>
		<path class="st2" d="M295.7,180.7h11.4l14.9,19.7v-19.7h11.5v35.7h-11.5l-14.8-19.6v19.6h-11.5V180.7z"/>
		<path class="st2" d="M361.4,203.4V196h18.9v15.2c-3.6,2.2-6.8,3.7-9.6,4.5c-2.8,0.8-6.1,1.2-9.9,1.2c-4.7,0-8.5-0.7-11.5-2.2
			c-3-1.4-5.2-3.6-6.9-6.5c-1.6-2.9-2.4-6.1-2.4-9.8c0-3.9,0.9-7.3,2.7-10.2c1.8-2.9,4.4-5.1,7.8-6.6c2.7-1.2,6.3-1.7,10.8-1.7
			c4.4,0,7.6,0.4,9.8,1.1c2.2,0.7,4,1.8,5.4,3.3c1.4,1.5,2.5,3.4,3.2,5.7l-11.8,1.9c-0.5-1.3-1.3-2.4-2.5-3.1s-2.6-1.1-4.4-1.1
			c-2.7,0-4.8,0.8-6.4,2.5c-1.6,1.7-2.4,4.3-2.4,8c0,3.9,0.8,6.6,2.4,8.3s3.8,2.5,6.7,2.5c1.4,0,2.7-0.2,3.9-0.5
			c1.2-0.4,2.7-1,4.3-1.8v-3.4H361.4z"/>
		<path class="st2" d="M405.9,180.7h12.2v26.9h19v8.8h-31.3V180.7z"/>
		<path class="st2" d="M443.2,180.7h12.2v35.7h-12.2V180.7z"/>
		<path class="st2" d="M464.1,180.7h16.1l6.2,21.7l6.1-21.7h16v35.7h-10v-27.2l-7.7,27.2h-9l-7.7-27.2v27.2h-10V180.7z"/>
		<path class="st2" d="M516.8,180.7H529v35.7h-12.2V180.7z"/>
		<path class="st2" d="M535,180.7h37.1v8.8h-12.4v26.9h-12.2v-26.9H535V180.7z"/>
		<path class="st2" d="M577.6,180.7h32.7v7.6h-20.5v5.7h19v7.3h-19v7h21.1v8.1h-33.3V180.7z"/>
		<path class="st2" d="M617.6,180.7h18.1c3.6,0,6.5,0.4,8.7,1.3c2.2,0.9,4,2.1,5.5,3.8c1.4,1.6,2.5,3.5,3.1,5.7c0.6,2.2,1,4.5,1,6.9
			c0,3.8-0.5,6.8-1.4,8.9s-2.3,3.9-4,5.3c-1.7,1.4-3.5,2.4-5.5,2.8c-2.7,0.6-5.1,1-7.3,1h-18.1V180.7z M629.8,188.8v19.5h3
			c2.6,0,4.4-0.3,5.4-0.8c1.1-0.5,1.9-1.4,2.5-2.7c0.6-1.3,0.9-3.3,0.9-6.2c0-3.8-0.7-6.4-2-7.8c-1.4-1.4-3.6-2.1-6.8-2.1H629.8z"/>
	</g>
</g>
<g id="BROWN">
	<g>
		<path class="st3" d="M110.2,93.8c0.8,0.4,7.4-5.5,8.2-6.5c2.6-2.9,4-6.6,5.1-10.3c2.1-6.9,2.7-14.4,0.9-21.5
			c-3.9-14.8-17.3-23.5-31.7-26c-0.9-0.1-2.3-0.3-3.2-0.3H28.5c-1.9,0-3.4,1.5-3.4,3.4v131.3c0,1.9,1.5,3.4,3.4,3.4h56.2
			c0.8,0,2.2-0.1,3-0.1c0.1,0,6.4-0.5,14.1-1.7c6-1,12-3.8,12.3-4c0.9-0.4,2.1-1.2,2.8-1.9c0.3-0.3,7.6-7,10.4-12.8
			c2.8-5.8,4.2-12.4,4.2-19.6c0-8.9-2-16.4-6-22.4C122.3,100.3,114,95.7,110.2,93.8z M86.1,79.3c-1,1-5.2,2.1-8.5,2.6
			C76.9,81.9,75.7,82,75,82H63.6V60.5h11.7c0.7,0,1.9,0.1,2.6,0.2c3.2,0.4,7.3,1.5,8.3,2.5c1.7,1.8,2.6,4.4,2.6,7.8
			C88.7,74.7,87.8,77.4,86.1,79.3z M77.6,134.7h-14v-23.2h13.9c0.7,0,1.9,0.1,2.6,0.2c3.3,0.4,8.7,1.6,10,2.9c2,2,3,4.7,3,8.2
			c0,3.8-1,6.7-3.1,8.8c-1.3,1.4-6.6,2.6-9.9,3C79.5,134.6,78.3,134.7,77.6,134.7z"/>
		<path class="st3" d="M242.4,127.2c-0.3-0.8-0.9-2-1.3-2.7c-0.1-0.1-1.8-3.6-4.3-7.3c-2.4-3.7-4.6-6.1-4.7-6.2
			c-0.6-0.7-1.7-1.6-2.5-2.2l-4.1-2.3l6.8-3l0.2-0.1c0.8-0.5,2-1.3,2.7-2c0.3-0.3,7.5-7.1,10.2-12.7c2.7-5.6,4.1-12.4,4.1-20.1
			c0-8.9-1.8-16.5-5.4-22.7c-3.6-6.3-8.5-10.7-14.5-13.1c-5.8-2.3-22.7-3.3-23.4-3.3c-0.8,0-2.1-0.1-3-0.1h-54.2
			c-1.9,0-3.4,1.5-3.4,3.4v131.3c0,1.9,1.5,3.4,3.4,3.4h31.5c1.9,0,3.4-1.5,3.4-3.4v-51c0.7,0,1.5,0.1,2.1,0.2c1.1,0.2,4.4,1,6,2.4
			c0.9,0.8,3.4,5,5.1,8.5c0.3,0.7,0.9,1.8,1.2,2.5l17.1,38.4c0.6,1.4,2.2,2.5,3.8,2.5h35.8c1.1,0,2-0.5,2.5-1.3
			c0.5-0.8,0.6-1.8,0.2-2.8L242.4,127.2z M184.1,60.5h11.6c0.7,0,1.9,0.1,2.6,0.1c4,0.4,9.1,1.6,10.1,2.7c1.9,1.9,2.8,4.8,2.8,8.6
			c0,2.6-0.6,4.8-1.8,6.7c-0.9,1.4-2.8,2.6-3.4,2.9c-0.6,0.3-1.6,0.7-2.2,0.8l-6.2,1.3c-0.7,0.1-1.8,0.2-2.5,0.2h-11V60.5z"/>
		<path class="st3" d="M317.8,27.1c-18.5,0-33.2,6.4-43.6,19c-10.3,12.5-15.6,30.2-15.6,52.4c0,15.9,2.6,29.4,7.8,40
			c5.2,10.7,12.2,18.7,20.7,23.7c8.5,5,19.2,7.5,32,7.5c12.6,0,23.4-2.9,31.9-8.7c8.5-5.8,15.1-13.9,19.6-24.3
			c4.4-10.2,6.7-23.5,6.7-39.4c0-22-5.2-39.4-15.4-51.7C351.6,33.4,336.7,27.1,317.8,27.1z M302.7,70.5c3.8-5.4,8.7-8,15-8
			c6.6,0,11.6,2.6,15.5,7.9c3.9,5.5,5.9,14.4,5.9,26.5c0,14.5-1.9,24.6-5.7,30.1c-3.7,5.3-8.7,7.8-15.4,7.8c-6.5,0-11.5-2.6-15.3-8
			c-3.9-5.5-5.9-15-5.9-28C296.8,85.5,298.8,76,302.7,70.5z"/>
		<path class="st3" d="M533.1,29.4h-29.5c-1.8,0-3.3,1.4-3.6,3.1l-9.9,63.3l-14.5-63.5c-0.4-1.7-2-2.9-3.7-2.9h-29.5
			c-1.7,0-3.3,1.3-3.7,2.9l-14.5,63.5l-9.9-63.4c-0.3-1.7-1.9-3.1-3.6-3.1h-29.7c-1,0-1.9,0.4-2.5,1.1s-0.8,1.7-0.7,2.6l24.1,131.4
			c0.3,1.7,1.9,3,3.6,3h30.7c1.7,0,3.3-1.3,3.7-2.9L457.2,90l17.1,74.6c0.4,1.7,2,2.9,3.7,2.9h30.7c1.8,0,3.3-1.3,3.6-3l23.9-131.4
			c0.2-1-0.1-1.9-0.7-2.6C535,29.8,534.1,29.4,533.1,29.4z"/>
		<path class="st3" d="M650.4,29.4H621c-1.9,0-3.4,1.5-3.4,3.4l0,65.2l-37.2-66.3c-0.7-1.3-2.4-2.3-3.9-2.3h-29.1
			c-1.9,0-3.4,1.5-3.4,3.4v131.3c0,1.9,1.5,3.4,3.4,3.4h29.3c1.9,0,3.4-1.5,3.4-3.4l0-64.6l37,65.8c0.7,1.3,2.4,2.3,3.9,2.3h29.4
			c1.9,0,3.4-1.5,3.4-3.4V32.8C653.8,30.9,652.3,29.4,650.4,29.4z"/>
	</g>
</g>
<g id="Layer_11">
	<g>
		<path class="st4" d="M29.6,53V33.8h3.9v7.5h7.7v-7.5h3.9V53h-3.9v-8.4h-7.7V53H29.6z"/>
	</g>
	<g>
		<path class="st4" d="M636.9,47.6l-2-1.6c0.4-0.8,0.9-1.6,1.6-2.3c-0.5-0.6-0.9-1.2-1.1-1.8c-0.2-0.6-0.4-1.4-0.4-2.3
			c0-1.7,0.5-3.1,1.4-3.9c0.7-0.7,1.6-1,2.6-1c0.9,0,1.7,0.3,2.4,0.8s1.3,1.3,1.8,2.4c0.6-0.5,1.1-0.8,1.6-1.1
			c0.5-0.2,1-0.4,1.4-0.4c0.8,0,1.5,0.3,2.1,1c0.6,0.7,0.9,1.6,0.9,2.9c0,1.2-0.3,2.2-0.9,2.8c-0.6,0.7-1.4,1-2.2,1
			c-0.6,0-1.1-0.2-1.6-0.5c-0.5-0.3-1.1-1-1.7-2l-2.5,1.9c0.4,0.2,0.9,0.4,1.6,0.6l-0.5,2.4c-0.8-0.2-1.5-0.5-1.9-0.6
			s-0.7-0.4-1-0.6c-0.3,0.3-0.6,0.7-0.9,1.2C637.3,47,637,47.4,636.9,47.6z M641.6,39.3c-0.3-0.6-0.7-1.1-1.1-1.4
			c-0.4-0.3-0.9-0.5-1.3-0.5c-0.6,0-1,0.2-1.4,0.6s-0.5,0.9-0.5,1.5c0,0.4,0.1,0.8,0.2,1.2c0.2,0.4,0.4,0.8,0.8,1.3L641.6,39.3z
			 M644.4,40.3L645,41c0.4,0.5,0.8,0.8,1.2,0.8c0.3,0,0.6-0.1,0.9-0.4c0.2-0.3,0.4-0.6,0.4-1c0-0.4-0.1-0.8-0.3-1s-0.5-0.4-0.7-0.4
			c-0.3,0-0.7,0.2-1.2,0.6L644.4,40.3z"/>
		<path class="st4" d="M639.7,48.6l0.3,2.7c-0.9,0.2-1.6,0.5-2,1c-0.4,0.5-0.6,1.2-0.6,2c0,0.9,0.2,1.6,0.6,2.1
			c0.4,0.5,0.8,0.7,1.3,0.7c0.3,0,0.6-0.1,0.8-0.3c0.2-0.2,0.4-0.5,0.6-1c0.1-0.3,0.3-1.1,0.6-2.3c0.4-1.5,0.8-2.6,1.4-3.2
			c0.8-0.9,1.7-1.3,2.8-1.3c0.7,0,1.4,0.2,2,0.6c0.6,0.4,1.1,1,1.4,1.7c0.3,0.8,0.5,1.7,0.5,2.8c0,1.8-0.4,3.1-1.1,4
			c-0.8,0.9-1.8,1.4-3,1.4l-0.1-2.8c0.7-0.1,1.2-0.4,1.5-0.8c0.3-0.4,0.5-1,0.5-1.8c0-0.8-0.2-1.5-0.5-1.9c-0.2-0.3-0.5-0.4-0.9-0.4
			c-0.3,0-0.6,0.1-0.8,0.4c-0.3,0.4-0.6,1.2-0.9,2.6c-0.3,1.4-0.7,2.4-1,3c-0.3,0.7-0.8,1.2-1.4,1.5c-0.6,0.4-1.3,0.6-2.2,0.6
			c-0.8,0-1.5-0.2-2.2-0.7s-1.2-1.1-1.5-1.9c-0.3-0.8-0.5-1.8-0.5-3c0-1.8,0.4-3.1,1.2-4.1C637,49.4,638.2,48.8,639.7,48.6z"/>
		<path class="st4" d="M642.1,61.8c1.4,0,2.6,0.2,3.5,0.6c0.7,0.3,1.3,0.8,1.9,1.3c0.6,0.5,1,1.2,1.2,1.8c0.4,0.9,0.5,1.9,0.5,3
			c0,2.1-0.6,3.7-1.9,4.9s-3,1.9-5.3,1.9c-2.2,0-4-0.6-5.2-1.8c-1.3-1.2-1.9-2.9-1.9-4.9c0-2.1,0.6-3.7,1.9-5
			C638.1,62.4,639.9,61.8,642.1,61.8z M642.2,64.7c-1.6,0-2.7,0.4-3.5,1.1c-0.8,0.7-1.2,1.7-1.2,2.8c0,1.1,0.4,2,1.2,2.8
			c0.8,0.7,2,1.1,3.6,1.1c1.6,0,2.8-0.4,3.5-1.1c0.8-0.7,1.2-1.6,1.2-2.8c0-1.2-0.4-2.1-1.2-2.8C644.9,65.1,643.7,64.7,642.2,64.7z"
			/>
		<path class="st4" d="M635.3,77.6H649v2.7l-9.2,5.7h9.2v2.6h-13.8v-2.8l9-5.6h-9V77.6z"/>
	</g>
</g>
<g id="N_1_">
	<g>
		<defs>
			<path id="SVGID_1_" d="M650.4,29.4H621c-1.9,0-3.4,1.5-3.4,3.4l0,65.2l-37.2-66.3c-0.7-1.3-2.4-2.3-3.9-2.3h-29.1
				c-1.9,0-3.4,1.5-3.4,3.4v131.3c0,1.9,1.5,3.4,3.4,3.4h29.3c1.9,0,3.4-1.5,3.4-3.4l0-64.6l37,65.8c0.7,1.3,2.4,2.3,3.9,2.3h29.4
				c1.9,0,3.4-1.5,3.4-3.4V32.8C653.8,30.9,652.3,29.4,650.4,29.4z"/>
		</defs>
		<clipPath id="SVGID_2_">
			<use xlink:href="#SVGID_1_"  style="overflow:visible;"/>
		</clipPath>
		<g class="st5">
			<rect x="538.5" y="160.3" class="st6" width="118" height="7.8"/>
			<rect x="538.5" y="150.3" class="st6" width="118" height="7.8"/>
			<rect x="538.5" y="140.3" class="st6" width="118" height="7.8"/>
			<rect x="538.5" y="131.3" class="st6" width="118" height="6.8"/>
			<rect x="538.5" y="123.3" class="st6" width="118" height="5.8"/>
			<rect x="538.5" y="117.1" class="st6" width="118" height="4"/>
			<rect x="538.5" y="111.8" class="st6" width="118" height="3.3"/>
			<rect x="538.5" y="106.6" class="st6" width="118" height="2.5"/>
			<rect x="538.5" y="100.6" class="st6" width="118" height="1.5"/>
		</g>
	</g>
</g>
<g id="W">
	<g>
		<defs>
			<path id="SVGID_3_" d="M533.1,29.4h-29.5c-1.8,0-3.3,1.4-3.6,3.1l-9.9,63.3l-14.5-63.5c-0.4-1.7-2-2.9-3.7-2.9h-29.5
				c-1.7,0-3.3,1.3-3.7,2.9l-14.5,63.5l-9.9-63.4c-0.3-1.7-1.9-3.1-3.6-3.1h-29.7c-1,0-1.9,0.4-2.5,1.1s-0.8,1.7-0.7,2.6l24.1,131.4
				c0.3,1.7,1.9,3,3.6,3h30.7c1.7,0,3.3-1.3,3.7-2.9L457.2,90l17.1,74.6c0.4,1.7,2,2.9,3.7,2.9h30.7c1.8,0,3.3-1.3,3.6-3l23.9-131.4
				c0.2-1-0.1-1.9-0.7-2.6C535,29.8,534.1,29.4,533.1,29.4z"/>
		</defs>
		<clipPath id="SVGID_4_">
			<use xlink:href="#SVGID_3_"  style="overflow:visible;"/>
		</clipPath>
		<g class="st7">
			<rect x="385.5" y="160.3" class="st6" width="140.5" height="7.8"/>
			<rect x="385.5" y="150.3" class="st6" width="140.5" height="7.8"/>
			<rect x="385.5" y="140.3" class="st6" width="140.5" height="7.8"/>
			<rect x="385.5" y="131.3" class="st6" width="140.5" height="6.8"/>
			<rect x="385.5" y="123.3" class="st6" width="140.5" height="5.8"/>
			<rect x="385.5" y="117.1" class="st6" width="140.5" height="4"/>
			<rect x="385.5" y="111.8" class="st6" width="140.5" height="3.3"/>
			<rect x="385.5" y="106.6" class="st6" width="140.5" height="2.5"/>
			<rect x="385.5" y="100.6" class="st6" width="140.5" height="1.5"/>
		</g>
	</g>
</g>
<g id="O">
	<g>
		<defs>
			<path id="SVGID_5_" d="M317.8,27.1c-18.5,0-33.2,6.4-43.6,19c-10.3,12.5-15.6,30.2-15.6,52.4c0,15.9,2.6,29.4,7.8,40
				c5.2,10.7,12.2,18.7,20.7,23.7c8.5,5,19.2,7.5,32,7.5c12.6,0,23.4-2.9,31.9-8.7c8.5-5.8,15.1-13.9,19.6-24.3
				c4.4-10.2,6.7-23.5,6.7-39.4c0-22-5.2-39.4-15.4-51.7C351.6,33.4,336.7,27.1,317.8,27.1z M333.4,127c-3.7,5.3-8.7,7.8-15.4,7.8
				c-6.5,0-11.5-2.6-15.3-8c-3.9-5.5-5.9-15-5.9-28c0-13.2,2-22.7,5.9-28.2c3.8-5.4,8.7-8,15-8c6.6,0,11.6,2.6,15.5,7.9
				c3.9,5.5,5.9,14.4,5.9,26.5C339.1,111.4,337.2,121.5,333.4,127z"/>
		</defs>
		<clipPath id="SVGID_6_">
			<use xlink:href="#SVGID_5_"  style="overflow:visible;"/>
		</clipPath>
		<g class="st8">
			<rect x="255.5" y="160.3" class="st6" width="122.7" height="7.8"/>
			<rect x="255.5" y="150.3" class="st6" width="122.7" height="7.8"/>
			<rect x="255.5" y="140.3" class="st6" width="122.7" height="7.8"/>
			<rect x="255.5" y="131.3" class="st6" width="122.7" height="6.8"/>
			<rect x="255.5" y="123.3" class="st6" width="122.7" height="5.8"/>
			<rect x="255.5" y="117.1" class="st6" width="122.7" height="4"/>
			<rect x="255.5" y="111.8" class="st6" width="122.7" height="3.3"/>
			<rect x="255.5" y="106.6" class="st6" width="122.7" height="2.5"/>
			<rect x="255.5" y="100.6" class="st6" width="122.7" height="1.5"/>
		</g>
	</g>
</g>
<g id="R">
	<g>
		<defs>
			<path id="SVGID_7_" d="M242.4,127.2c-0.3-0.8-0.9-2-1.3-2.7c-0.1-0.1-1.8-3.6-4.3-7.3c-2.4-3.7-4.6-6.1-4.7-6.2
				c-0.6-0.7-1.7-1.6-2.5-2.2l-4.1-2.3l6.8-3l0.2-0.1c0.8-0.5,2-1.3,2.7-2c0.3-0.3,7.5-7.1,10.2-12.7c2.7-5.6,4.1-12.4,4.1-20.1
				c0-8.9-1.8-16.5-5.4-22.7c-3.6-6.3-8.5-10.7-14.5-13.1c-5.8-2.3-22.7-3.3-23.4-3.3c-0.8,0-2.1-0.1-3-0.1h-54.2
				c-1.9,0-3.4,1.5-3.4,3.4v131.3c0,1.9,1.5,3.4,3.4,3.4h31.5c1.9,0,3.4-1.5,3.4-3.4v-51c0.7,0,1.5,0.1,2.1,0.2c1.1,0.2,4.4,1,6,2.4
				c0.9,0.8,3.4,5,5.1,8.5c0.3,0.7,0.9,1.8,1.2,2.5l17.1,38.4c0.6,1.4,2.2,2.5,3.8,2.5h35.8c1.1,0,2-0.5,2.5-1.3
				c0.5-0.8,0.6-1.8,0.2-2.8L242.4,127.2z M209.4,78.6c-0.9,1.4-2.8,2.6-3.4,2.9c-0.6,0.3-1.6,0.7-2.2,0.8l-6.2,1.3
				c-0.7,0.1-1.8,0.2-2.5,0.2h-11V60.5h11.6c0.7,0,1.9,0.1,2.6,0.1c4,0.4,9.1,1.6,10.1,2.7c1.9,1.9,2.8,4.8,2.8,8.6
				C211.3,74.5,210.7,76.7,209.4,78.6z"/>
		</defs>
		<clipPath id="SVGID_8_">
			<use xlink:href="#SVGID_7_"  style="overflow:visible;"/>
		</clipPath>
		<g class="st9">
			<rect x="142.5" y="160.3" class="st6" width="118" height="7.8"/>
			<rect x="142.5" y="150.3" class="st6" width="118" height="7.8"/>
			<rect x="142.5" y="140.3" class="st6" width="118" height="7.8"/>
			<rect x="142.5" y="131.3" class="st6" width="118" height="6.8"/>
			<rect x="142.5" y="123.3" class="st6" width="118" height="5.8"/>
			<rect x="142.5" y="117.1" class="st6" width="118" height="4"/>
			<rect x="142.5" y="111.8" class="st6" width="118" height="3.3"/>
			<rect x="142.5" y="106.6" class="st6" width="118" height="2.5"/>
			<rect x="142.5" y="100.6" class="st6" width="118" height="1.5"/>
		</g>
	</g>
</g>
<g id="B">
	<g>
		<defs>
			<path id="SVGID_9_" d="M110.2,93.8l8.1-6.1l0.2-0.2c0.7-0.7,1.6-1.9,2-2.8c0.2-0.5,5.7-11.7,5.7-20c0-9.9-3.1-18.4-9.1-25.1
				c-6.1-6.8-23.6-9.9-24.3-10c-0.9-0.1-2.3-0.3-3.2-0.3H28.5c-1.9,0-3.4,1.5-3.4,3.4v131.3c0,1.9,1.5,3.4,3.4,3.4h56.2
				c0.8,0,2.2-0.1,3-0.1c0.1,0,6.4-0.5,14.1-1.7c6-1,12-3.8,12.3-4c0.9-0.4,2.1-1.2,2.8-1.9c0.3-0.3,7.6-7,10.4-12.8
				c2.8-5.8,4.2-12.4,4.2-19.6c0-8.9-2-16.4-6-22.4C122.3,100.3,114,95.7,110.2,93.8z M63.6,60.5h11.7c0.7,0,1.9,0.1,2.6,0.2
				c3.2,0.4,7.3,1.5,8.3,2.5c1.7,1.8,2.6,4.4,2.6,7.8c0,3.7-0.9,6.5-2.6,8.3c-1,1-5.2,2.1-8.5,2.6C76.9,81.9,75.7,82,75,82H63.6
				V60.5z M90,131.5c-1.3,1.4-6.6,2.6-9.9,3c-0.7,0.1-1.9,0.2-2.6,0.2h-14v-23.2h13.9c0.7,0,1.9,0.1,2.6,0.2c3.3,0.4,8.7,1.6,10,2.9
				c2,2,3,4.7,3,8.2C93.1,126.5,92.1,129.4,90,131.5z"/>
		</defs>
		<clipPath id="SVGID_10_">
			<use xlink:href="#SVGID_9_"  style="overflow:visible;"/>
		</clipPath>
		<g class="st10">
			<rect x="23.5" y="160.3" class="st6" width="114.5" height="7.8"/>
			<rect x="23.5" y="150.3" class="st6" width="114.5" height="7.8"/>
			<rect x="23.5" y="140.3" class="st6" width="114.5" height="7.8"/>
			<rect x="23.5" y="131.3" class="st6" width="114.5" height="6.8"/>
			<rect x="23.5" y="123.3" class="st6" width="114.5" height="5.8"/>
			<rect x="23.5" y="117.1" class="st6" width="114.5" height="4"/>
			<rect x="23.5" y="111.8" class="st6" width="114.5" height="3.3"/>
			<rect x="23.5" y="106.6" class="st6" width="114.5" height="2.5"/>
			<rect x="23.5" y="100.6" class="st6" width="114.5" height="1.5"/>
		</g>
	</g>
</g>
</svg>
